<svg xmlns="http://www.w3.org/2000/svg" viewBox="0 0 18.93 18.97"><defs><style>.cls-1{fill:#959ca3;}</style></defs><g id="Layer_2" data-name="Layer 2"><g id="Cabecera"><path class="cls-1" d="M6.63,0H12.3l1.33.07a6.4,6.4,0,0,1,2.24.5,5,5,0,0,1,3,4c.05.33.08.66.11,1v7.63l0,.26c0,.41-.07.84-.16,1.24a4.85,4.85,0,0,1-3.14,3.78,7.17,7.17,0,0,1-2.6.43c-2,0-4,0-6,0A12.17,12.17,0,0,1,4,18.72,4.87,4.87,0,0,1,.6,16,6.76,6.76,0,0,1,0,13.11C0,11.06,0,9,0,7A17.13,17.13,0,0,1,.19,4.38,4.86,4.86,0,0,1,2.11,1.13a5.74,5.74,0,0,1,3.15-1C5.72,0,6.17,0,6.63,0ZM9.49,17.3v0c.5,0,1,0,1.5,0,1.07,0,2.15,0,3.21-.16A3.09,3.09,0,0,0,17,14.64a7.94,7.94,0,0,0,.21-1.82c0-1.91,0-3.82,0-5.72a22.2,22.2,0,0,0-.14-2.31,3.17,3.17,0,0,0-2.65-2.86,11,11,0,0,0-2-.18c-1.66,0-3.32,0-5,0a17,17,0,0,0-2.85.15,3.2,3.2,0,0,0-2.72,2.6,12,12,0,0,0-.18,1.9c0,1.51,0,3,0,4.55,0,1.08,0,2.15.15,3.22a3.15,3.15,0,0,0,1.5,2.47,4.06,4.06,0,0,0,2,.57Z"/><path class="cls-1" d="M4.6,9.49a4.88,4.88,0,1,1,4.88,4.88A4.88,4.88,0,0,1,4.6,9.49Zm1.72,0A3.16,3.16,0,1,0,9.48,6.33,3.15,3.15,0,0,0,6.32,9.49Z"/><path class="cls-1" d="M14.57,3.29a1.12,1.12,0,0,1,1.11,1.17,1.14,1.14,0,1,1-1.11-1.17Z"/></g></g></svg>