<svg xmlns="http://www.w3.org/2000/svg" viewBox="0 0 18.98 18.98"><defs><style>.cls-1{fill:#959ca3;}</style></defs><g id="Layer_2" data-name="Layer 2"><g id="Cabecera"><path class="cls-1" d="M1.63,0H17.35a.19.19,0,0,0,.08,0,2,2,0,0,1,1.12.68,2.59,2.59,0,0,1,.43.92V17.35s0,0,0,.06A1.92,1.92,0,0,1,17,19H2a2.24,2.24,0,0,1-.52-.06A1.91,1.91,0,0,1,0,17V1.81A2,2,0,0,1,.65.48,2.25,2.25,0,0,1,1.63,0Zm8.81,16.12V11.28a2.11,2.11,0,0,1,0-.35,1.43,1.43,0,0,1,1.77-1.19,1.45,1.45,0,0,1,1,1.46v4.92h2.84c0-.06,0-.1,0-.14V10.74A3.23,3.23,0,0,0,14.94,8.2a3,3,0,0,0-4.24.2c-.08.08-.15.18-.27.31V7.61H7.61v8.51Zm-4.76,0V7.61H2.86v8.51ZM6,4.27A1.71,1.71,0,1,0,4.26,6,1.69,1.69,0,0,0,6,4.27Z"/></g></g></svg>